<svg xmlns="http://www.w3.org/2000/svg" xmlns:xlink="http://www.w3.org/1999/xlink" width="143" height="25" viewBox="0 0 143 25"><defs><path id="px2la" d="M50.63 62.53l7.08-7.11.98 11.3 9.87.59h.65l-7.62 7.64c0 .01-11.79-10.43-10.96-12.42z"/><path id="px2lb" d="M72.17 63.66l-2.5 2.54-10.91-11.05 2.5-2.54a5.16 5.16 0 0 1 3.98-1.54l7.97.48.47 8.07a5.32 5.32 0 0 1-1.51 4.04zm-13.55-7.24l9.8 9.9-9.25-.55zm3.62 17.28a.92.92 0 0 1-1.32 0L51.34 64a.95.95 0 0 1 0-1.33l6.3-6.39.59 10c.02.24.2.44.45.45l9.87.6zm12.4-14.13l-.5-8.5a.48.48 0 0 0-.44-.46l-8.4-.5a6.14 6.14 0 0 0-4.73 1.81l-9.92 10.05a1.95 1.95 0 0 0 0 2.73l9.58 9.7a1.9 1.9 0 0 0 2.7 0l9.92-10.05c1.25-1.26 1.9-3 1.8-4.78z"/><path id="px2lc" d="M84.3 55.72l4.96 10.08 4.92-10.08h2.98v15.17h-2.34l-.02-11.33-4.74 9.75H88.4l-4.72-9.75v11.33H81.3V55.72z"/><path id="px2ld" d="M113.02 65.19l-2.82-6.74-2.82 6.74zm.97 2.28h-7.56L105 70.89h-2.63l6.62-15.17h2.59l6.55 15.17h-2.7z"/><path id="px2le" d="M125.86 55.72v15.17h-2.53V55.72z"/><path id="px2lf" d="M135.53 55.72v12.85H142v2.32H133V55.72z"/><path id="px2lg" d="M157.88 55.72v2.3h-4.75v12.87h-2.53V58.02h-4.73v-2.3z"/><path id="px2lh" d="M170.47 65.19l-2.82-6.74-2.82 6.74zm.98 2.28h-7.56l-1.43 3.42h-2.63l6.62-15.17h2.59l6.55 15.17h-2.7z"/><path id="px2li" d="M190.65 63.43h2.2v5.59a10.06 10.06 0 0 1-5.82 1.97 7.69 7.69 0 0 1-7.88-7.69c0-4.33 3.49-7.65 8.03-7.65a8.9 8.9 0 0 1 5.76 2.13l-1.43 1.89a6.46 6.46 0 0 0-4.33-1.74 5.38 5.38 0 1 0 .02 10.76c1.11 0 2.38-.39 3.45-1.04v-4.22z"/></defs><g><g transform="translate(-50 -50)"><g><g><use fill="#475462" xlink:href="#px2la"/></g><g><use fill="#475462" xlink:href="#px2lb"/></g></g><g><g><use fill="#475462" xlink:href="#px2lc"/></g><g><use fill="#475462" xlink:href="#px2ld"/></g><g><use fill="#475462" xlink:href="#px2le"/></g><g><use fill="#475462" xlink:href="#px2lf"/></g><g><use fill="#475462" xlink:href="#px2lg"/></g><g><use fill="#475462" xlink:href="#px2lh"/></g><g><use fill="#475462" xlink:href="#px2li"/></g></g></g></g></svg>