<?xml version="1.0" encoding="UTF-8" standalone="no"?>
<svg width="16px" height="16px" viewBox="0 0 16 16" version="1.1" xmlns="http://www.w3.org/2000/svg" xmlns:xlink="http://www.w3.org/1999/xlink">
    <!-- Generator: Sketch 48.1 (47250) - http://www.bohemiancoding.com/sketch -->
    <title>16x16 copy</title>
    <desc>Created with Sketch.</desc>
    <defs></defs>
    <g id="Page-1" stroke="none" stroke-width="1" fill="none" fill-rule="evenodd">
        <g id="16x16-copy" stroke="#D3D4D9">
            <g id="Page-1">
                <path d="M5.3135,3.2415 L12.7505,10.6785 L8.1745,15.2555 C7.8585,15.5715 7.3465,15.5715 7.0295,15.2555 L0.7365,8.9625 C0.4205,8.6465 0.4205,8.1345 0.7365,7.8185 L5.3135,3.2415 Z" id="Stroke-1"></path>
                <path d="M5.2764,3.2712 L12.7134,10.7082 L14.3404,9.0812 C15.1194,8.3032 15.5384,7.2352 15.4974,6.1352 L15.3224,1.4542 C15.3064,1.0302 14.9664,0.6912 14.5434,0.6752 L9.8324,0.5022 C8.7334,0.4622 7.6664,0.8812 6.8884,1.6592 L5.2764,3.2712 Z" id="Stroke-3"></path>
                <path d="M5.3135,3.2415 L5.7185,9.3875 C5.7505,9.8635 6.1285,10.2425 6.6045,10.2735 L12.7505,10.6785" id="Stroke-5"></path>
            </g>
        </g>
    </g>
</svg>