<?xml version="1.0" encoding="utf-8"?>
<!-- Svg Vector Icons : http://www.onlinewebfonts.com/icon -->
<!DOCTYPE svg PUBLIC "-//W3C//DTD SVG 1.1//EN" "http://www.w3.org/Graphics/SVG/1.1/DTD/svg11.dtd">
<svg version="1.1" xmlns="http://www.w3.org/2000/svg" xmlns:xlink="http://www.w3.org/1999/xlink" x="0px" y="0px" viewBox="0 0 1000 1000" width="19px" height="19px" enable-background="new 0 0 1000 1000" xml:space="preserve">
<metadata> Svg Vector Icons : http://www.onlinewebfonts.com/icon </metadata>
<g><path fill="#838383" d="M906.4,431.9c5.3,26.6,8.2,54,8.2,82.1c0,114.1-46.1,217.4-120.7,292.4l81.3,81.3c14.3,14.3,14.3,37.4,0,51.7c-14.3,14.3-37.4,14.3-51.7,0l-85.9-85.9c-67.3,47.2-149.1,75.1-237.5,75.1c-88.2,0-169.8-27.7-237-74.7l-85.8,85.9c-14.7,14.7-38.6,14.7-53.3,0c-14.7-14.7-14.7-38.6,0-53.3l81.2-81.3C131.1,730.3,85.4,627.6,85.4,514.1c0-28.1,2.9-55.6,8.2-82.1C42.8,392.9,10,331.7,10,262.7c0-117.9,95.6-213.6,213.6-213.6c61.7,0,117.1,26.3,156.1,68.2c38.1-11.6,78.4-17.9,120.3-17.9s82.2,6.3,120.3,17.9c39-41.9,94.4-68.2,156.1-68.2c118,0,213.6,95.7,213.6,213.6C990,331.7,957.2,392.9,906.4,431.9z M223.6,124.5c-76.3,0-138.2,61.9-138.2,138.2c0,34,12.8,64.7,33.1,88.8c36.8-86.3,102-157.6,183.9-202.2C280,133.9,252.9,124.5,223.6,124.5z M500,174.8c-187.4,0-339.2,151.9-339.2,339.2c0,187.4,151.9,339.2,339.2,339.2S839.2,701.4,839.2,514C839.2,326.7,687.4,174.8,500,174.8z M776.4,124.5c-29.4,0-56.5,9.3-78.8,24.9c81.9,44.5,147.1,115.8,183.9,202.2c20.4-24.1,33.1-54.8,33.1-88.8C914.6,186.4,852.7,124.5,776.4,124.5z M675.9,551.7H500c-20.8,0-37.7-16.9-37.7-37.7c0-0.3,0.1-0.5,0.1-0.7V337.9c0-20.8,16.9-37.7,37.7-37.7s37.7,16.9,37.7,37.7v138.4h138.1c20.8,0,37.7,16.9,37.7,37.7C713.6,534.8,696.7,551.7,675.9,551.7z"/></g>
</svg>