<?xml version="1.0" encoding="UTF-8"?>
<svg width="19px" height="19px" viewBox="0 0 19 19" version="1.1" xmlns="http://www.w3.org/2000/svg" xmlns:xlink="http://www.w3.org/1999/xlink">
    <!-- Generator: Sketch 50.2 (55047) - http://www.bohemiancoding.com/sketch -->
    <title>settings</title>
    <desc>Created with Sketch.</desc>
    <defs></defs>
    <g id="Page-1" stroke="none" stroke-width="1" fill="none" fill-rule="evenodd">
        <g id="Mailtag.io-Ping-Tab-2" transform="translate(-36.000000, -473.000000)" stroke="#2f3d4c" stroke-width="1.5">
            <g id="Mailtag.io-Inbox" transform="translate(1.000000, 0.000000)">
                <g id="Sidebar" transform="translate(-1.000000, 0.000000)">
                    <g id="settings" transform="translate(37.000000, 474.000000)">
                        <path d="M14.2181818,10.8181818 C14.0077323,11.2950241 14.1087127,11.8519466 14.4731818,12.2245455 L14.5195455,12.2709091 C14.8097463,12.5607873 14.9728067,12.9541403 14.9728067,13.3643182 C14.9728067,13.7744961 14.8097463,14.1678491 14.5195455,14.4577273 C14.2296672,14.7479282 13.8363143,14.9109885 13.4261364,14.9109885 C13.0159584,14.9109885 12.6226055,14.7479282 12.3327273,14.4577273 L12.2863636,14.4113636 C11.9137648,14.0468945 11.3568423,13.9459141 10.88,14.1563636 C10.4129091,14.3565528 10.1092995,14.8150032 10.1072727,15.3231818 L10.1072727,15.4545455 C10.1072727,16.3080764 9.41534916,17 8.56181818,17 C7.7082872,17 7.01636364,16.3080764 7.01636364,15.4545455 L7.01636364,15.385 C7.00412101,14.8616093 6.67317364,14.3988958 6.18181818,14.2181818 C5.70497586,14.0077323 5.14805339,14.1087127 4.77545455,14.4731818 L4.72909091,14.5195455 C4.43921269,14.8097463 4.04585975,14.9728067 3.63568182,14.9728067 C3.22550389,14.9728067 2.83215094,14.8097463 2.54227273,14.5195455 C2.25207184,14.2296672 2.08901153,13.8363143 2.08901153,13.4261364 C2.08901153,13.0159584 2.25207184,12.6226055 2.54227273,12.3327273 L2.58863636,12.2863636 C2.95310545,11.9137648 3.0540859,11.3568423 2.84363636,10.88 C2.64344724,10.4129091 2.1849968,10.1092995 1.67681818,10.1072727 L1.54545455,10.1072727 C0.691923568,10.1072727 1.71579922e-16,9.41534916 0,8.56181818 C-8.5789961e-17,7.7082872 0.691923568,7.01636364 1.54545455,7.01636364 L1.615,7.01636364 C2.13839073,7.00412101 2.60110418,6.67317364 2.78181818,6.18181818 C2.99226772,5.70497586 2.89128727,5.14805339 2.52681818,4.77545455 L2.48045455,4.72909091 C2.19025366,4.43921269 2.02719335,4.04585975 2.02719335,3.63568182 C2.02719335,3.22550389 2.19025366,2.83215094 2.48045455,2.54227273 C2.77033276,2.25207184 3.16368571,2.08901153 3.57386364,2.08901153 C3.98404157,2.08901153 4.37739451,2.25207184 4.66727273,2.54227273 L4.71363636,2.58863636 C5.0862352,2.95310545 5.64315767,3.0540859 6.12,2.84363636 L6.18181818,2.84363636 C6.64890911,2.64344724 6.95251866,2.1849968 6.95454545,1.67681818 L6.95454545,1.54545455 C6.95454545,0.691923568 7.64646902,1.71579922e-16 8.5,0 C9.35353098,0 10.0454545,0.691923568 10.0454545,1.54545455 L10.0454545,1.615 C10.0474813,2.12317862 10.3510909,2.58162905 10.8181818,2.78181818 C11.2950241,2.99226772 11.8519466,2.89128727 12.2245455,2.52681818 L12.2709091,2.48045455 C12.5607873,2.19025366 12.9541403,2.02719335 13.3643182,2.02719335 C13.7744961,2.02719335 14.1678491,2.19025366 14.4577273,2.48045455 C14.7479282,2.77033276 14.9109885,3.16368571 14.9109885,3.57386364 C14.9109885,3.98404157 14.7479282,4.37739451 14.4577273,4.66727273 L14.4113636,4.71363636 C14.0468945,5.0862352 13.9459141,5.64315767 14.1563636,6.12 L14.1563636,6.18181818 C14.3565528,6.64890911 14.8150032,6.95251866 15.3231818,6.95454545 L15.4545455,6.95454545 C16.3080764,6.95454545 17,7.64646902 17,8.5 C17,9.35353098 16.3080764,10.0454545 15.4545455,10.0454545 L15.385,10.0454545 C14.8768214,10.0474813 14.4183709,10.3510909 14.2181818,10.8181818 Z" id="Shape"></path>
                        <circle id="Oval" cx="8.5" cy="8.5" r="2.31818182"></circle>
                    </g>
                </g>
            </g>
        </g>
    </g>
</svg>