<?xml version="1.0" encoding="UTF-8" standalone="no"?>
<svg width="28px" height="28px" viewBox="0 0 32 32" version="1.1" xmlns="http://www.w3.org/2000/svg" xmlns:xlink="http://www.w3.org/1999/xlink">
    <!-- Generator: Sketch 48.1 (47250) - http://www.bohemiancoding.com/sketch -->
    <title>32x32</title>
    <desc>Created with Sketch.</desc>
    <defs>
        <polygon id="path-1" points="0 0 32 0 32 32 0 32"></polygon>
    </defs>
    <g id="Page-1" stroke="none" stroke-width="1" fill="none" fill-rule="evenodd">
        <g id="32x32">
            <g id="Page-1-Copy">
                <mask id="mask-2" fill="white">
                    <use xlink:href="#path-1"></use>
                </mask>
                <g id="Clip-2"></g>
                <path d="M25.6149641,20.2839406 L11.6959836,6.35811565 L14.3209799,3.73120548 C15.7329779,2.31871608 17.6929752,1.54544816 19.6819724,1.62447555 L29.223959,1.9755972 C29.6559584,1.9906024 30.0059579,2.34172406 30.0219579,2.77387379 L30.3759574,12.2591602 C30.4509573,14.2568524 29.6829584,16.2135303 28.2709603,17.6270201 L25.6149641,20.2839406 Z M13.2259814,19.8067753 C12.6699822,19.7707628 12.2229829,19.3236079 12.1869829,18.7664149 L11.5179838,8.60489411 L23.3839672,20.4770075 L13.2259814,19.8067753 Z M31.9939551,12.1981391 L31.6389556,2.71285264 C31.5919557,1.43841108 30.5559571,0.403052349 29.2829589,0.357036406 L19.7409723,0.0059147498 C17.2949757,-0.084116444 14.9049791,0.857209705 13.1769815,2.58680897 L9.3389869,6.42513887 L9.34698689,6.43314164 L0.716998994,15.0671331 C0.254999642,15.5292933 0,16.1445064 0,16.7987331 C0,17.4529598 0.254999642,18.0681729 0.716998994,18.5303331 L13.4629811,31.2827515 C13.9259805,31.7449116 14.5399796,32 15.1939787,32 C15.8479778,32 16.4629769,31.7449116 16.9249763,31.2827515 L26.7669625,21.4363399 L26.7599625,21.4283372 L29.4149587,18.7714166 C31.1449563,17.040817 32.084955,14.6449869 31.9939551,12.1981391 Z" id="Fill-1" fill="#3A98F8" mask="url(#mask-2)"></path>
            </g>
        </g>
    </g>
</svg>