<?xml version="1.0" encoding="UTF-8" standalone="no"?>
<svg width="128px" height="128px" viewBox="0 0 128 128" version="1.1" xmlns="http://www.w3.org/2000/svg" xmlns:xlink="http://www.w3.org/1999/xlink">
    <!-- Generator: Sketch 48.1 (47250) - http://www.bohemiancoding.com/sketch -->
    <title>128x128</title>
    <desc>Created with Sketch.</desc>
    <defs>
        <polygon id="path-1" points="0 0 128 0 128 128 0 128"></polygon>
    </defs>
    <g id="Page-1" stroke="none" stroke-width="1" fill="none" fill-rule="evenodd">
        <g id="128x128">
            <g id="Page-1">
                <mask id="mask-2" fill="white">
                    <use xlink:href="#path-1"></use>
                </mask>
                <g id="Clip-2"></g>
                <path d="M102.459856,81.1357626 L46.7839344,25.4324626 L57.2839197,14.9248219 C62.9319117,9.27486434 70.7719007,6.18179266 78.7278896,6.49790218 L116.895836,7.90238881 C118.623834,7.9624096 120.023832,9.36689623 120.087832,11.0954951 L121.50383,49.0366409 C121.803829,57.0274096 118.731833,64.8541213 113.083841,70.5080803 L102.459856,81.1357626 Z M52.9039258,79.2271013 C50.6799289,79.0830513 48.8919314,77.2944316 48.7479316,75.0656594 L46.0719354,34.4195764 L93.5358688,81.9080301 L52.9039258,79.2271013 Z M127.975821,48.7925564 L126.555822,10.8514106 C126.367823,5.75364431 122.223829,1.6122094 117.131836,1.42814562 L78.9638892,0.0236589992 C69.179903,-0.336465776 59.6199164,3.42883882 52.7079261,10.3472359 L37.3559476,25.7005555 L37.3879476,25.7325666 L2.86799598,60.2685325 C1.01999857,62.117173 0,64.5780257 0,67.1949324 C0,69.8118391 1.01999857,72.2726917 2.86799598,74.1213322 L53.8519245,125.131006 C55.7039219,126.979646 58.1599184,128 60.7759148,128 C63.3919111,128 65.8519076,126.979646 67.699905,125.131006 L107.06785,85.7453597 L107.03985,85.7133486 L117.659835,75.0856663 C124.579825,68.1632679 128.33982,58.5799475 127.975821,48.7925564 Z" id="Fill-1" fill="#3A98F8" mask="url(#mask-2)"></path>
            </g>
        </g>
    </g>
</svg>