<?xml version="1.0" encoding="UTF-8" standalone="no"?>
<svg width="48px" height="48px" viewBox="0 0 48 48" version="1.1" xmlns="http://www.w3.org/2000/svg" xmlns:xlink="http://www.w3.org/1999/xlink">
    <!-- Generator: Sketch 48.1 (47250) - http://www.bohemiancoding.com/sketch -->
    <title>48x48</title>
    <desc>Created with Sketch.</desc>
    <defs>
        <polygon id="path-1" points="0 0 48 0 48 48 0 48"></polygon>
    </defs>
    <g id="Page-1" stroke="none" stroke-width="1" fill="none" fill-rule="evenodd">
        <g id="48x48">
            <g id="Page-1-Copy-2">
                <mask id="mask-2" fill="white">
                    <use xlink:href="#path-1"></use>
                </mask>
                <g id="Clip-2"></g>
                <path d="M38.4224461,30.425911 L17.5439754,9.53717347 L21.4814699,5.59680822 C23.5994669,3.47807413 26.5394628,2.31817225 29.5229586,2.43671332 L43.8359385,2.9633958 C44.4839376,2.9859036 45.0089369,3.51258608 45.0329368,4.16081068 L45.5639361,18.3887403 C45.6764359,21.3852786 44.5244376,24.3202955 42.4064405,26.4405301 L38.4224461,30.425911 Z M19.8389722,29.710163 C19.0049733,29.6561443 18.3344743,28.9854119 18.2804744,28.1496223 L17.2769758,12.9073412 L35.0759508,30.7155113 L19.8389722,29.710163 Z M47.9909327,18.2972086 L47.4584334,4.06927897 C47.3879335,2.15761662 45.8339357,0.604578524 43.9244384,0.535554609 L29.6114585,0.0088721247 C25.9424636,-0.126174666 22.3574686,1.28581456 19.7654723,3.88021346 L14.0084804,9.63770831 L14.0204803,9.64971246 L1.07549849,22.6006997 C0.382499464,23.2939399 0,24.2167596 0,25.1980996 C0,26.1794397 0.382499464,27.1022594 1.07549849,27.7954996 L20.1944717,46.9241272 C20.8889707,47.6173674 21.8099694,48 22.790968,48 C23.7719667,48 24.6944654,47.6173674 25.3874644,46.9241272 L40.1504437,32.1545099 L40.1399437,32.1425057 L44.1224381,28.1571249 C46.7174345,25.5612255 48.1274325,21.9674803 47.9909327,18.2972086 Z" id="Fill-1" fill="#3A98F8" mask="url(#mask-2)"></path>
            </g>
        </g>
    </g>
</svg>