<?xml version="1.0" encoding="UTF-8" standalone="no"?>
<svg width="16px" height="16px" viewBox="0 0 16 16" version="1.1" xmlns="http://www.w3.org/2000/svg" xmlns:xlink="http://www.w3.org/1999/xlink">
    <!-- Generator: Sketch 48.1 (47250) - http://www.bohemiancoding.com/sketch -->
    <title>16x16</title>
    <desc>Created with Sketch.</desc>
    <defs>
        <polygon id="path-1" points="0 0 16 0 16 16 0 16"></polygon>
    </defs>
    <g id="Page-1" stroke="none" stroke-width="1" fill="none" fill-rule="evenodd">
        <g id="16x16">
            <g id="Page-1-Copy-3">
                <mask id="mask-2" fill="white">
                    <use xlink:href="#path-1"></use>
                </mask>
                <g id="Clip-2"></g>
                <path d="M12.807482,10.1419703 L5.8479918,3.17905782 L7.16048996,1.86560274 C7.86648897,1.15935804 8.84648759,0.772724082 9.8409862,0.812237773 L14.6119795,0.987798601 C14.8279792,0.9953012 15.002979,1.17086203 15.0109789,1.38693689 L15.1879787,6.12958012 C15.2254786,7.12842619 14.8414792,8.10676517 14.1354802,8.81351004 L12.807482,10.1419703 Z M6.61299072,9.90338766 C6.33499111,9.88538142 6.11149143,9.66180395 6.09349145,9.38320743 L5.75899192,4.30244705 L11.6919836,10.2385038 L6.61299072,9.90338766 Z M15.9969776,6.09906954 L15.8194778,1.35642632 C15.7959778,0.719205539 15.2779786,0.201526175 14.6414795,0.178518203 L9.87048616,0.0029573749 C8.64748787,-0.042058222 7.45248955,0.428604852 6.58849076,1.29340449 L4.66949345,3.21256944 L4.67349345,3.21657082 L0.358499497,7.53356657 C0.127499821,7.76464663 0,8.07225321 0,8.39936655 C0,8.72647988 0.127499821,9.03408646 0.358499497,9.26516653 L6.73149056,15.6413757 C6.96299023,15.8724558 7.2699898,16 7.59698934,16 C7.92398889,16 8.23148845,15.8724558 8.46248813,15.6413757 L13.3834812,10.71817 L13.3799812,10.7141686 L14.7074794,9.38570829 C15.5724782,8.52040849 16.0424775,7.32249343 15.9969776,6.09906954 Z" id="Fill-1" fill="#3A98F8" mask="url(#mask-2)"></path>
            </g>
        </g>
    </g>
</svg>