<?xml version="1.0" encoding="utf-8"?>
<!-- Svg Vector Icons : http://www.onlinewebfonts.com/icon -->
<!DOCTYPE svg PUBLIC "-//W3C//DTD SVG 1.1//EN" "http://www.w3.org/Graphics/SVG/1.1/DTD/svg11.dtd">
<svg version="1.1" xmlns="http://www.w3.org/2000/svg" xmlns:xlink="http://www.w3.org/1999/xlink" width="20px" height="20px" x="0px" y="0px" viewBox="0 0 1000 1000" enable-background="new 0 0 1000 1000" xml:space="preserve" >
<metadata> Svg Vector Icons : http://www.onlinewebfonts.com/icon </metadata>
<g><path d="M824.6,903.4h-5.3V564.6L500,237.2L182.4,563v340.4h-6.9c-29.4,0-53.2,23.9-53.2,53.2v2.8h755.7v-2.8C877.9,927.2,854.1,903.4,824.6,903.4z M315.5,521.1h370.6v376.4H315.5V521.1z"/><path d="M500,205.3l329.3,337.8H990L500,40.5L10,543.1h160.7L500,205.3z"/><path d="M337.7,543.3H483v332H337.7L337.7,543.3L337.7,543.3z"/><path d="M518.8,543.3H664v332H518.8V543.3z"/></g>
</svg>