<?xml version="1.0" encoding="UTF-8" standalone="no"?>
<svg width="18px" height="19px" viewBox="0 0 18 19" version="1.1" xmlns="http://www.w3.org/2000/svg" xmlns:xlink="http://www.w3.org/1999/xlink">
    <!-- Generator: Sketch 48.1 (47250) - http://www.bohemiancoding.com/sketch -->
    <title>Group 3</title>
    <desc>Created with Sketch.</desc>
    <defs>
        <path d="M0,10 L13,10 L13,18 C13,18.5522847 12.5522847,19 12,19 L1,19 C0.44771525,19 6.76353751e-17,18.5522847 0,18 L0,10 Z" id="path-1"></path>
    </defs>
    <g id="icons-2" stroke="none" stroke-width="1" fill="none" fill-rule="evenodd" transform="translate(-906.000000, -741.000000)">
        <g id="Group-3" transform="translate(916.906854, 748.313708) rotate(-315.000000) translate(-916.906854, -748.313708) translate(910.406854, 738.813708)">
            <g id="Rectangle-4">
                <use fill="#458CFA" fill-rule="evenodd" xlink:href="#path-1"></use>
                <path stroke="#458CFA" stroke-width="1" d="M0.5,10.5 L0.5,18 C0.5,18.2761424 0.723857625,18.5 1,18.5 L12,18.5 C12.2761424,18.5 12.5,18.2761424 12.5,18 L12.5,10.5 L0.5,10.5 Z"></path>
            </g>
            <path d="M0.5,0.5 L0.5,4.07849367 C0.5,4.49543702 0.673540183,4.89356797 0.978986612,5.17737113 L6.17117701,10.0016542 C6.36296241,10.1798501 6.65973128,10.1799416 6.85162658,10.0018641 L12.0203353,5.20533648 C12.3261927,4.92150286 12.5,4.52309459 12.5,4.10582939 L12.5,0.5 L0.5,0.5 Z" id="Rectangle-4-Copy" stroke="#458CFA" transform="translate(6.500000, 5.500000) scale(1, -1) translate(-6.500000, -5.500000) "></path>
            <path d="M1.51120991,8.72392117 L1.47773747,11.0094553 L5.85980512,15.1609511 C6.24717262,15.5279365 6.85443705,15.5261294 7.23961364,15.1568453 L11.563805,11.0110704 L11.4984348,7.47885925" id="Path-2" stroke="#F5F5F5"></path>
        </g>
    </g>
</svg>